<?xml version="1.0" encoding="UTF-8"?>
<svg version="1.1" xmlns="http://www.w3.org/2000/svg" width="128" height="128">
<path d="M0 0 C0.81852448 -0.00997513 1.63704895 -0.01995026 2.4803772 -0.03022766 C3.36980011 -0.03089233 4.25922302 -0.03155701 5.17559814 -0.03224182 C6.11918182 -0.04056534 7.0627655 -0.04888885 8.03494263 -0.0574646 C11.156414 -0.08157217 14.27767634 -0.0903384 17.39923096 -0.09693909 C19.57153384 -0.10590597 21.74383609 -0.11502782 23.9161377 -0.1242981 C28.47236634 -0.1407935 33.02852146 -0.14848903 37.58477783 -0.15138245 C43.41338656 -0.15676183 49.24130079 -0.19442175 55.06971359 -0.24012661 C59.55825296 -0.26992249 64.04662577 -0.27710659 68.53525543 -0.2781086 C70.68339463 -0.28230708 72.83153449 -0.29472634 74.97957611 -0.31562614 C77.99074273 -0.34258758 81.00030854 -0.33770006 84.01153564 -0.32521057 C84.89286163 -0.34004486 85.77418762 -0.35487915 86.68222046 -0.37016296 C93.60461288 -0.28871267 98.44713018 1.90002646 103.37983322 6.78768253 C106.80673503 10.7268928 109.0919582 14.156971 109.12651062 19.42179871 C109.13648575 20.24032318 109.14646088 21.05884766 109.15673828 21.9021759 C109.15740295 22.79159882 109.15806763 23.68102173 109.15875244 24.59739685 C109.16707596 25.54098053 109.17539948 26.48456421 109.18397522 27.45674133 C109.20808279 30.5782127 109.21684902 33.69947505 109.22344971 36.82102966 C109.23241659 38.99333255 109.24153844 41.16563479 109.25080872 43.3379364 C109.26730412 47.89416504 109.27499965 52.45032017 109.27789307 57.00657654 C109.28327245 62.83518526 109.32093237 68.6630995 109.36663723 74.4915123 C109.39643311 78.98005167 109.40361721 83.46842448 109.40461922 87.95705414 C109.4088177 90.10519333 109.42123696 92.25333319 109.44213676 94.40137482 C109.4690982 97.41254144 109.46421068 100.42210724 109.45172119 103.43333435 C109.47397263 104.75532333 109.47397263 104.75532333 109.49667358 106.10401917 C109.4152233 113.02641159 107.22648416 117.86892889 102.33882809 122.80163193 C98.39961782 126.22853374 94.96953962 128.51375691 89.70471191 128.54830933 C88.88618744 128.55828445 88.06766296 128.56825958 87.22433472 128.57853699 C85.89020035 128.579534 85.89020035 128.579534 84.52911377 128.58055115 C83.58553009 128.58887466 82.64194641 128.59719818 81.66976929 128.60577393 C78.54829792 128.6298815 75.42703557 128.63864772 72.30548096 128.64524841 C70.13317807 128.65421529 67.96087583 128.66333715 65.78857422 128.67260742 C61.23234558 128.68910283 56.67619045 128.69679835 52.11993408 128.69969177 C46.29132536 128.70507115 40.46341113 128.74273108 34.63499832 128.78843594 C30.14645895 128.81823182 25.65808614 128.82541592 21.16945648 128.82641792 C19.02131729 128.8306164 16.87317743 128.84303566 14.7251358 128.86393547 C11.71396918 128.8908969 8.70440338 128.88600939 5.69317627 128.8735199 C4.37118729 128.89577133 4.37118729 128.89577133 3.02249146 128.91847229 C-3.89990097 128.837022 -8.74241827 126.64828286 -13.67512131 121.76062679 C-17.10202312 117.82141652 -19.38724629 114.39133833 -19.42179871 109.12651062 C-19.43177383 108.30798615 -19.44174896 107.48946167 -19.45202637 106.64613342 C-19.45269104 105.75671051 -19.45335571 104.8672876 -19.45404053 103.95091248 C-19.46236404 103.0073288 -19.47068756 102.06374512 -19.47926331 101.09156799 C-19.50337088 97.97009662 -19.5121371 94.84883428 -19.51873779 91.72727966 C-19.52770467 89.55497678 -19.53682653 87.38267453 -19.5460968 85.21037292 C-19.56259221 80.65414428 -19.57028773 76.09798916 -19.57318115 71.54173279 C-19.57856053 65.71312406 -19.61622046 59.88520983 -19.66192532 54.05679703 C-19.6917212 49.56825766 -19.6989053 45.07988485 -19.6999073 40.59125519 C-19.70410578 38.443116 -19.71652504 36.29497613 -19.73742485 34.14693451 C-19.76438628 31.13576789 -19.75949877 28.12620208 -19.74700928 25.11497498 C-19.76926071 23.79298599 -19.76926071 23.79298599 -19.79196167 22.44429016 C-19.71051138 15.52189774 -17.52177224 10.67938044 -12.63411617 5.7466774 C-8.6949059 2.31977559 -5.26482771 0.03455242 0 0 Z " fill="#7A5FDA" transform="translate(19.14764404296875,-0.2741546630859375)"/>
<path d="M0 0 C4.14534404 2.27064654 7.55507439 5.32240123 9.9375 9.4375 C9.9375 10.7575 9.9375 12.0775 9.9375 13.4375 C10.989375 13.540625 12.04125 13.64375 13.125 13.75 C19.90825688 14.97321026 22.90218442 18.16917133 26.9375 23.4375 C29.32584383 28.21418766 28.45394696 34.82740065 26.875 39.75 C23.72615584 44.11775158 20.09679816 47.71773395 14.9375 49.4375 C9.96889685 49.95916057 6.08231021 50.0099051 1.5625 47.75 C-3.41524944 43.36483978 -5.73851147 40.25734708 -6.23828125 33.59375 C-5.96670084 30.26236361 -4.46917991 28.63789306 -2.0625 26.4375 C-1.4025 26.1075 -0.7425 25.7775 -0.0625 25.4375 C-5.79486598 24.97891072 -8.61546547 25.78104939 -13.0625 29.4375 C-17.49081525 34.46423623 -18.36823695 37.31935594 -18.2734375 43.8984375 C-17.98198488 47.4066635 -17.10757474 49.57439537 -15.0625 52.4375 C-7.84137224 58.1222176 -0.99974592 58.01798288 7.9375 57.4375 C16.25812476 55.11863736 21.80733925 49.04119714 26.9375 42.375 C31.03065012 37.07893199 35.48826194 32.58724602 41.9375 30.4375 C44.27049825 30.39795766 46.60458189 30.39348268 48.9375 30.4375 C48.256875 30.9325 47.57625 31.4275 46.875 31.9375 C39.72287152 38.02441786 34.87251034 45.36459318 29.93310547 53.27026367 C23.51794118 63.47895479 15.55165233 71.55438062 3.578125 75 C-6.05348784 76.59577018 -16.58401011 76.79763005 -25.0625 71.4375 C-34.40388909 64.34083276 -42.11318983 56.30911848 -44.0625 44.4375 C-44.9723398 35.06615006 -44.74744194 27.22242049 -39.0625 19.4375 C-36.14713746 15.8980035 -33.23454497 14.23448045 -28.6875 13.625 C-27.49125 13.563125 -26.295 13.50125 -25.0625 13.4375 C-24.815 12.550625 -24.5675 11.66375 -24.3125 10.75 C-22.05451471 4.76633898 -18.85790834 1.75889565 -13.13671875 -0.83203125 C-8.36727118 -2.51166721 -4.52414178 -1.98306784 0 0 Z " fill="#FCFCFE" transform="translate(69.0625,20.5625)"/>
<path d="M0 0 C-0.680625 0.495 -1.36125 0.99 -2.0625 1.5 C-9.21462848 7.58691786 -14.06498966 14.92709318 -19.00439453 22.83276367 C-25.02176303 32.40842746 -32.03060217 40.05302876 -43.1875 43.625 C-47.97870864 44.09626642 -50.80765191 43.22692132 -55 41 C-55.60972656 40.6803125 -56.21945313 40.360625 -56.84765625 40.03125 C-62.9411572 36.28140326 -65.8787382 30.24252359 -69 24 C-69.0716735 21.44842345 -69.09308442 18.92527029 -69.0625 16.375 C-69.05798828 15.66859375 -69.05347656 14.9621875 -69.04882812 14.234375 C-69.03703875 12.48954725 -69.01910324 10.744763 -69 9 C-68.67 9 -68.34 9 -68 9 C-67.91363281 9.66386719 -67.82726562 10.32773437 -67.73828125 11.01171875 C-66.81126083 16.83748928 -65.97200585 20.35386238 -61 24 C-54.68285068 27.81661105 -48.23493661 27.6510526 -41 27 C-32.67937524 24.68113736 -27.13016075 18.60369714 -22 11.9375 C-15.80002387 3.91544015 -10.30350857 -0.19440582 0 0 Z " fill="#F0EDF9" transform="translate(118,51)"/>
<path d="M0 0 C3.98869593 2.46111025 6.25760342 5.15134229 7.4375 9.76953125 C8.08021147 13.97125746 7.87676369 17.63799469 6.9375 21.8125 C2.58700335 23.26266555 -1.51584185 23.32320107 -6.0625 22.8125 C-10.43122308 20.62813846 -13.54461211 18.00897982 -16.0625 13.8125 C-17.34146229 9.28249808 -17.75355001 6.06170579 -15.4375 1.875 C-10.00355906 -2.84394871 -6.44081651 -2.49745946 0 0 Z " fill="#ECE9F8" transform="translate(80.0625,47.1875)"/>
<path d="M0 0 C1.04220703 0.1997644 1.04220703 0.1997644 2.10546875 0.40356445 C6.99235125 1.38174321 11.442464 2.693578 16 4.6875 C12.56472861 7.88515069 10.1946746 8.01623339 5.58203125 7.875 C4.32712891 7.85179688 3.07222656 7.82859375 1.77929688 7.8046875 C-0.84572022 7.72713899 -3.4707206 7.64902262 -6.09570312 7.5703125 C-13.47162592 7.43462869 -19.1713975 7.82172583 -26 10.6875 C-24.75 7.75 -24.75 7.75 -23 4.6875 C-20.8125 3.8125 -20.8125 3.8125 -19 3.6875 C-19 3.0275 -19 2.3675 -19 1.6875 C-20.65 1.6875 -22.3 1.6875 -24 1.6875 C-24 1.0275 -24 0.3675 -24 -0.3125 C-15.73787084 -1.49280417 -8.18647387 -1.6184182 0 0 Z " fill="#947EDC" transform="translate(75,97.3125)"/>
<path d="M0 0 C0 0.33 0 0.66 0 1 C-8.91 1.99 -8.91 1.99 -18 3 C-18 2.34 -18 1.68 -18 1 C-19.65 1 -21.3 1 -23 1 C-23 0.34 -23 -0.32 -23 -1 C-14.88691335 -2.15901238 -7.88287507 -2.62762502 0 0 Z " fill="#9E8BE0" transform="translate(74,98)"/>
<path d="M0 0 C2.42102911 1.18098981 3.82068009 2.2331559 5.5625 4.25 C-2.86607143 5.67857143 -2.86607143 5.67857143 -7.4375 3.25 C-3.34447674 -1.02906977 -3.34447674 -1.02906977 0 0 Z " fill="#876DD6" transform="translate(93.4375,102.75)"/>
<path d="M0 0 C0 0.66 0 1.32 0 2 C-1.65 2.33 -3.3 2.66 -5 3 C-5 3.66 -5 4.32 -5 5 C-8.32534757 6.10844919 -10.62182575 5.84454356 -14 5 C-11.35493484 3.23662322 -9.40786033 2.3439149 -6.4375 1.375 C-5.65246094 1.11460938 -4.86742188 0.85421875 -4.05859375 0.5859375 C-2 0 -2 0 0 0 Z " fill="#7354D3" transform="translate(81,92)"/>
<path d="M0 0 C-1.04874998 2.62187494 -1.64931313 3.79371361 -4.125 5.25 C-4.74375 5.4975 -5.3625 5.745 -6 6 C-6.33 5.01 -6.66 4.02 -7 3 C-7.66 2.67 -8.32 2.34 -9 2 C-5.62902617 0.50178941 -3.79557881 0 0 0 Z " fill="#7356D5" transform="translate(91,68)"/>
<path d="M0 0 C0.33 0 0.66 0 1 0 C1.10957031 0.67546875 1.21914063 1.3509375 1.33203125 2.046875 C1.49058594 2.93890625 1.64914063 3.8309375 1.8125 4.75 C1.96332031 5.63171875 2.11414062 6.5134375 2.26953125 7.421875 C3.05414248 10.1910911 4.14595359 11.8259401 6 14 C5.67 14.66 5.34 15.32 5 16 C2.51953125 14.91796875 2.51953125 14.91796875 0 13 C-0.48828125 9.86328125 -0.48828125 9.86328125 -0.3125 6.3125 C-0.26738281 5.13300781 -0.22226562 3.95351563 -0.17578125 2.73828125 C-0.11777344 1.83464844 -0.05976562 0.93101563 0 0 Z " fill="#D9D2F2" transform="translate(49,60)"/>
<path d="M0 0 C2 1 2 1 2 1 Z " fill="#6A6AD4" transform="translate(115,127)"/>
<path d="M0 0 C2 1 2 1 2 1 Z " fill="#6A6AFF" transform="translate(11,127)"/>
<path d="M0 0 C2 1 2 1 2 1 Z " fill="#4020DF" transform="translate(117,126)"/>
<path d="M0 0 C2 1 2 1 2 1 Z " fill="#4020DF" transform="translate(9,126)"/>
<path d="" fill="#4020DF" transform="translate(0,0)"/>
<path d="" fill="#4020DF" transform="translate(0,0)"/>
<path d="" fill="#6A6AD4" transform="translate(0,0)"/>
<path d="" fill="#6A6AFF" transform="translate(0,0)"/>
<path d="" fill="#6A6AFF" transform="translate(0,0)"/>
<path d="" fill="#956AFF" transform="translate(0,0)"/>
<path d="" fill="#4020DF" transform="translate(0,0)"/>
<path d="" fill="#4040DF" transform="translate(0,0)"/>
<path d="M0 0 C2 1 2 1 2 1 Z " fill="#4020DF" transform="translate(117,1)"/>
<path d="M0 0 C2 1 2 1 2 1 Z " fill="#4040DF" transform="translate(9,1)"/>
<path d="M0 0 C2 1 2 1 2 1 Z " fill="#956AFF" transform="translate(115,0)"/>
<path d="M0 0 C2 1 2 1 2 1 Z " fill="#956AFF" transform="translate(11,0)"/>
<path d="" fill="#5555AA" transform="translate(0,0)"/>
<path d="" fill="#5555AA" transform="translate(0,0)"/>
<path d="" fill="#8040BF" transform="translate(0,0)"/>
<path d="" fill="#8040BF" transform="translate(0,0)"/>
<path d="" fill="#8040BF" transform="translate(0,0)"/>
<path d="" fill="#8080FF" transform="translate(0,0)"/>
<path d="" fill="#8040BF" transform="translate(0,0)"/>
<path d="" fill="#8080BF" transform="translate(0,0)"/>
<path d="" fill="#8040BF" transform="translate(0,0)"/>
<path d="" fill="#8080FF" transform="translate(0,0)"/>
<path d="" fill="#8040BF" transform="translate(0,0)"/>
<path d="" fill="#8040BF" transform="translate(0,0)"/>
<path d="" fill="#5555AA" transform="translate(0,0)"/>
<path d="" fill="#5555AA" transform="translate(0,0)"/>
<path d="" fill="#5555AA" transform="translate(0,0)"/>
<path d="" fill="#5555FF" transform="translate(0,0)"/>
<path d="" fill="#8080BF" transform="translate(0,0)"/>
<path d="" fill="#8080FF" transform="translate(0,0)"/>
<path d="" fill="#8080FF" transform="translate(0,0)"/>
<path d="" fill="#8080FF" transform="translate(0,0)"/>
<path d="" fill="#8080FF" transform="translate(0,0)"/>
<path d="" fill="#8080FF" transform="translate(0,0)"/>
<path d="" fill="#8080FF" transform="translate(0,0)"/>
<path d="" fill="#8080FF" transform="translate(0,0)"/>
<path d="" fill="#8080BF" transform="translate(0,0)"/>
<path d="" fill="#8080FF" transform="translate(0,0)"/>
<path d="" fill="#5555AA" transform="translate(0,0)"/>
<path d="" fill="#5555FF" transform="translate(0,0)"/>
</svg>
